<svg id="visual" viewBox="0 0 900 600" width="900" height="600" xmlns="http://www.w3.org/2000/svg" xmlns:xlink="http://www.w3.org/1999/xlink" version="1.1"><path d="M0 145L13.7 131C27.3 117 54.7 89 82 88C109.3 87 136.7 113 163.8 118C191 123 218 107 245.2 101C272.3 95 299.7 99 327 109C354.3 119 381.7 135 409 135C436.3 135 463.7 119 491 112C518.3 105 545.7 107 573 106C600.3 105 627.7 101 654.8 99C682 97 709 97 736.2 104C763.3 111 790.7 125 818 123C845.3 121 872.7 103 886.3 94L900 85L900 0L886.3 0C872.7 0 845.3 0 818 0C790.7 0 763.3 0 736.2 0C709 0 682 0 654.8 0C627.7 0 600.3 0 573 0C545.7 0 518.3 0 491 0C463.7 0 436.3 0 409 0C381.7 0 354.3 0 327 0C299.7 0 272.3 0 245.2 0C218 0 191 0 163.8 0C136.7 0 109.3 0 82 0C54.7 0 27.3 0 13.7 0L0 0Z" fill="#7cb8e5"></path><path d="M0 367L13.7 350C27.3 333 54.7 299 82 290C109.3 281 136.7 297 163.8 300C191 303 218 293 245.2 277C272.3 261 299.7 239 327 243C354.3 247 381.7 277 409 309C436.3 341 463.7 375 491 371C518.3 367 545.7 325 573 294C600.3 263 627.7 243 654.8 237C682 231 709 239 736.2 258C763.3 277 790.7 307 818 324C845.3 341 872.7 345 886.3 347L900 349L900 83L886.3 92C872.7 101 845.3 119 818 121C790.7 123 763.3 109 736.2 102C709 95 682 95 654.8 97C627.7 99 600.3 103 573 104C545.7 105 518.3 103 491 110C463.7 117 436.3 133 409 133C381.7 133 354.3 117 327 107C299.7 97 272.3 93 245.2 99C218 105 191 121 163.8 116C136.7 111 109.3 85 82 86C54.7 87 27.3 115 13.7 129L0 143Z" fill="#5ca8e0"></path><path d="M0 445L13.7 450C27.3 455 54.7 465 82 464C109.3 463 136.7 451 163.8 440C191 429 218 419 245.2 420C272.3 421 299.7 433 327 450C354.3 467 381.7 489 409 502C436.3 515 463.7 519 491 501C518.3 483 545.7 443 573 431C600.3 419 627.7 435 654.8 437C682 439 709 427 736.2 430C763.3 433 790.7 451 818 455C845.3 459 872.7 449 886.3 444L900 439L900 347L886.3 345C872.7 343 845.3 339 818 322C790.7 305 763.3 275 736.2 256C709 237 682 229 654.8 235C627.7 241 600.3 261 573 292C545.7 323 518.3 365 491 369C463.7 373 436.3 339 409 307C381.7 275 354.3 245 327 241C299.7 237 272.3 259 245.2 275C218 291 191 301 163.8 298C136.7 295 109.3 279 82 288C54.7 297 27.3 331 13.7 348L0 365Z" fill="#3498db"></path><path d="M0 547L13.7 544C27.3 541 54.7 535 82 531C109.3 527 136.7 525 163.8 520C191 515 218 507 245.2 509C272.3 511 299.7 523 327 534C354.3 545 381.7 555 409 560C436.3 565 463.7 565 491 559C518.3 553 545.7 541 573 539C600.3 537 627.7 545 654.8 542C682 539 709 525 736.2 524C763.3 523 790.7 535 818 542C845.3 549 872.7 551 886.3 552L900 553L900 437L886.3 442C872.7 447 845.3 457 818 453C790.7 449 763.3 431 736.2 428C709 425 682 437 654.8 435C627.7 433 600.3 417 573 429C545.7 441 518.3 481 491 499C463.7 517 436.3 513 409 500C381.7 487 354.3 465 327 448C299.7 431 272.3 419 245.2 418C218 417 191 427 163.8 438C136.7 449 109.3 461 82 462C54.7 463 27.3 453 13.7 448L0 443Z" fill="#2c84be"></path><path d="M0 601L13.7 601C27.3 601 54.7 601 82 601C109.3 601 136.7 601 163.8 601C191 601 218 601 245.2 601C272.3 601 299.7 601 327 601C354.3 601 381.7 601 409 601C436.3 601 463.7 601 491 601C518.3 601 545.7 601 573 601C600.3 601 627.7 601 654.8 601C682 601 709 601 736.2 601C763.3 601 790.7 601 818 601C845.3 601 872.7 601 886.3 601L900 601L900 551L886.3 550C872.7 549 845.3 547 818 540C790.7 533 763.3 521 736.2 522C709 523 682 537 654.8 540C627.7 543 600.3 535 573 537C545.7 539 518.3 551 491 557C463.7 563 436.3 563 409 558C381.7 553 354.3 543 327 532C299.7 521 272.3 509 245.2 507C218 505 191 513 163.8 518C136.7 523 109.3 525 82 529C54.7 533 27.3 539 13.7 542L0 545Z" fill="#2470a1"></path></svg>