<svg id="visual" viewBox="0 0 900 600" width="900" height="600" xmlns="http://www.w3.org/2000/svg" xmlns:xlink="http://www.w3.org/1999/xlink" version="1.1"><path d="M0 389L21.5 391C43 393 86 397 128.8 394.5C171.7 392 214.3 383 257.2 381.5C300 380 343 386 385.8 390.8C428.7 395.7 471.3 399.3 514.2 399.2C557 399 600 395 642.8 390.8C685.7 386.7 728.3 382.3 771.2 381C814 379.7 857 381.3 878.5 382.2L900 383L900 601L878.5 601C857 601 814 601 771.2 601C728.3 601 685.7 601 642.8 601C600 601 557 601 514.2 601C471.3 601 428.7 601 385.8 601C343 601 300 601 257.2 601C214.3 601 171.7 601 128.8 601C86 601 43 601 21.5 601L0 601Z" fill="#85c1e9"></path><path d="M0 457L21.5 453.7C43 450.3 86 443.7 128.8 444.3C171.7 445 214.3 453 257.2 451.7C300 450.3 343 439.7 385.8 436.2C428.7 432.7 471.3 436.3 514.2 430.3C557 424.3 600 408.7 642.8 412.7C685.7 416.7 728.3 440.3 771.2 447C814 453.7 857 443.3 878.5 438.2L900 433L900 601L878.5 601C857 601 814 601 771.2 601C728.3 601 685.7 601 642.8 601C600 601 557 601 514.2 601C471.3 601 428.7 601 385.8 601C343 601 300 601 257.2 601C214.3 601 171.7 601 128.8 601C86 601 43 601 21.5 601L0 601Z" fill="#73b7e5"></path><path d="M0 503L21.5 493.5C43 484 86 465 128.8 460.2C171.7 455.3 214.3 464.7 257.2 464.2C300 463.7 343 453.3 385.8 452.5C428.7 451.7 471.3 460.3 514.2 467.5C557 474.7 600 480.3 642.8 481.5C685.7 482.7 728.3 479.3 771.2 472.2C814 465 857 454 878.5 448.5L900 443L900 601L878.5 601C857 601 814 601 771.2 601C728.3 601 685.7 601 642.8 601C600 601 557 601 514.2 601C471.3 601 428.7 601 385.8 601C343 601 300 601 257.2 601C214.3 601 171.7 601 128.8 601C86 601 43 601 21.5 601L0 601Z" fill="#60ade2"></path><path d="M0 521L21.5 515.7C43 510.3 86 499.7 128.8 502.7C171.7 505.7 214.3 522.3 257.2 528C300 533.7 343 528.3 385.8 525.5C428.7 522.7 471.3 522.3 514.2 519C557 515.7 600 509.3 642.8 506.3C685.7 503.3 728.3 503.7 771.2 507.5C814 511.3 857 518.7 878.5 522.3L900 526L900 601L878.5 601C857 601 814 601 771.2 601C728.3 601 685.7 601 642.8 601C600 601 557 601 514.2 601C471.3 601 428.7 601 385.8 601C343 601 300 601 257.2 601C214.3 601 171.7 601 128.8 601C86 601 43 601 21.5 601L0 601Z" fill="#4ca3df"></path><path d="M0 557L21.5 559.5C43 562 86 567 128.8 567.3C171.7 567.7 214.3 563.3 257.2 561.7C300 560 343 561 385.8 558C428.7 555 471.3 548 514.2 544.8C557 541.7 600 542.3 642.8 546.2C685.7 550 728.3 557 771.2 561.5C814 566 857 568 878.5 569L900 570L900 601L878.5 601C857 601 814 601 771.2 601C728.3 601 685.7 601 642.8 601C600 601 557 601 514.2 601C471.3 601 428.7 601 385.8 601C343 601 300 601 257.2 601C214.3 601 171.7 601 128.8 601C86 601 43 601 21.5 601L0 601Z" fill="#3498db"></path></svg>