<svg id="visual" viewBox="0 0 900 600" width="900" height="600" xmlns="http://www.w3.org/2000/svg" xmlns:xlink="http://www.w3.org/1999/xlink" version="1.1"><path d="M0 397L21.5 401.3C43 405.7 86 414.3 128.8 412.3C171.7 410.3 214.3 397.7 257.2 389.2C300 380.7 343 376.3 385.8 381.7C428.7 387 471.3 402 514.2 408.2C557 414.3 600 411.7 642.8 401C685.7 390.3 728.3 371.7 771.2 370C814 368.3 857 383.7 878.5 391.3L900 399L900 601L878.5 601C857 601 814 601 771.2 601C728.3 601 685.7 601 642.8 601C600 601 557 601 514.2 601C471.3 601 428.7 601 385.8 601C343 601 300 601 257.2 601C214.3 601 171.7 601 128.8 601C86 601 43 601 21.5 601L0 601Z" fill="#27ae60"></path><path d="M0 457L21.5 460.2C43 463.3 86 469.7 128.8 459C171.7 448.3 214.3 420.7 257.2 408.2C300 395.7 343 398.3 385.8 403.2C428.7 408 471.3 415 514.2 420.3C557 425.7 600 429.3 642.8 432.8C685.7 436.3 728.3 439.7 771.2 433.2C814 426.7 857 410.3 878.5 402.2L900 394L900 601L878.5 601C857 601 814 601 771.2 601C728.3 601 685.7 601 642.8 601C600 601 557 601 514.2 601C471.3 601 428.7 601 385.8 601C343 601 300 601 257.2 601C214.3 601 171.7 601 128.8 601C86 601 43 601 21.5 601L0 601Z" fill="#24a35a"></path><path d="M0 457L21.5 455.7C43 454.3 86 451.7 128.8 456.2C171.7 460.7 214.3 472.3 257.2 472.2C300 472 343 460 385.8 462.8C428.7 465.7 471.3 483.3 514.2 488.8C557 494.3 600 487.7 642.8 486C685.7 484.3 728.3 487.7 771.2 482.5C814 477.3 857 463.7 878.5 456.8L900 450L900 601L878.5 601C857 601 814 601 771.2 601C728.3 601 685.7 601 642.8 601C600 601 557 601 514.2 601C471.3 601 428.7 601 385.8 601C343 601 300 601 257.2 601C214.3 601 171.7 601 128.8 601C86 601 43 601 21.5 601L0 601Z" fill="#229854"></path><path d="M0 536L21.5 532.2C43 528.3 86 520.7 128.8 518.5C171.7 516.3 214.3 519.7 257.2 521.8C300 524 343 525 385.8 524.7C428.7 524.3 471.3 522.7 514.2 516.8C557 511 600 501 642.8 497.5C685.7 494 728.3 497 771.2 504C814 511 857 522 878.5 527.5L900 533L900 601L878.5 601C857 601 814 601 771.2 601C728.3 601 685.7 601 642.8 601C600 601 557 601 514.2 601C471.3 601 428.7 601 385.8 601C343 601 300 601 257.2 601C214.3 601 171.7 601 128.8 601C86 601 43 601 21.5 601L0 601Z" fill="#1f8d4e"></path><path d="M0 537L21.5 541.3C43 545.7 86 554.3 128.8 553.8C171.7 553.3 214.3 543.7 257.2 540.2C300 536.7 343 539.3 385.8 543.3C428.7 547.3 471.3 552.7 514.2 551.5C557 550.3 600 542.7 642.8 537.5C685.7 532.3 728.3 529.7 771.2 530.7C814 531.7 857 536.3 878.5 538.7L900 541L900 601L878.5 601C857 601 814 601 771.2 601C728.3 601 685.7 601 642.8 601C600 601 557 601 514.2 601C471.3 601 428.7 601 385.8 601C343 601 300 601 257.2 601C214.3 601 171.7 601 128.8 601C86 601 43 601 21.5 601L0 601Z" fill="#1d8348"></path></svg>